<svg xmlns="http://www.w3.org/2000/svg" width="80.817" height="55.327" viewBox="0 0 80.817 55.327">
  <g id="Group_62124" data-name="Group 62124" transform="translate(0.001 0)">
    <path id="Path_110226" data-name="Path 110226" d="M886.03,650.668c-.114.1-1.915.664-2.241.793-.717.285-1.43.6-2.1.926-1.492.713-4.745,2.693-6.425,2.639-1.083-.035-1.032-.966-.889-1.925.166-1.118-.148-1.58-.977-1.92a5.968,5.968,0,0,0-1.908-.4,1.949,1.949,0,0,1-.643-.1c-.2.058-2.6-.005-3.122.022-1.6.083-7.145.814-7.876,1.406a7.282,7.282,0,0,1,3.994,1.09,4.628,4.628,0,0,1,1.069.857,5.249,5.249,0,0,1,1.282,1.805c.445,0,1.058-.122,1.536-.158a25.391,25.391,0,0,1,4.881.121c.961.108,2.182.121,2.2,1.192a8.273,8.273,0,0,1-.313,1.38,12.872,12.872,0,0,0-.078,1.505c.2.223.18,1.078,1.7.773a25.426,25.426,0,0,0,5.275-2.531,36.661,36.661,0,0,1,3.228-1.995A12.058,12.058,0,0,1,888.647,655c4.482-.461,10.536.505,14.281-1.4.788-.4,2.677-1.579,2.672-2.45-.552-.194-1.168.233-1.678.419a9.864,9.864,0,0,1-5.829.212c-1.965-.466-3.132-.953-5.378-1.334a17.188,17.188,0,0,1-1.933-.275,8.549,8.549,0,0,1-1.331.016c-.411.013-.822.044-1.223.092-.54.065-1.86.4-2.2.384Z" transform="translate(-833.964 -643.453)" fill="none" stroke="#fff" stroke-linecap="round" stroke-linejoin="round" stroke-width="1"/>
    <path id="Path_110227" data-name="Path 110227" d="M886.03,650.668c-.114.1-1.915.664-2.241.793-.717.285-1.43.6-2.1.926-1.492.713-4.745,2.693-6.425,2.639-1.083-.035-1.032-.966-.889-1.925.166-1.118-.148-1.58-.977-1.92a5.968,5.968,0,0,0-1.908-.4,1.949,1.949,0,0,1-.643-.1c-.2.058-2.6-.005-3.122.022-1.6.083-7.145.814-7.876,1.406a7.282,7.282,0,0,1,3.994,1.09,4.628,4.628,0,0,1,1.069.857,5.249,5.249,0,0,1,1.282,1.805c.445,0,1.058-.122,1.536-.158a25.391,25.391,0,0,1,4.881.121c.961.108,2.182.121,2.2,1.192a8.273,8.273,0,0,1-.313,1.38,12.872,12.872,0,0,0-.078,1.505c.2.223.18,1.078,1.7.773a25.426,25.426,0,0,0,5.275-2.531,36.661,36.661,0,0,1,3.228-1.995A12.058,12.058,0,0,1,888.647,655c4.482-.461,10.536.505,14.281-1.4.788-.4,2.677-1.579,2.672-2.45-.552-.194-1.168.233-1.678.419a9.864,9.864,0,0,1-5.829.212c-1.965-.466-3.132-.953-5.378-1.334a17.188,17.188,0,0,1-1.933-.275,8.549,8.549,0,0,1-1.331.016c-.411.013-.822.044-1.223.092-.54.065-1.86.4-2.2.384Z" transform="translate(-833.964 -643.453)" fill="#f36a10" fill-rule="evenodd"/>
    <path id="Path_110228" data-name="Path 110228" d="M885.357,695.593c-.7.163-2.681-.157-3.2.131a8.677,8.677,0,0,0-.191.956,8.59,8.59,0,0,1-.243.855,7.075,7.075,0,0,1-2.233,3.268,7.57,7.57,0,0,0-.622.471l-.007.061c.471-.086.972-.248,1.467-.351a23.846,23.846,0,0,1,8.326-.092c1.739.268,1.115,1.417.924,2.238-.235,1.011-.305,2.38.788,2.53a5.254,5.254,0,0,0,2.788-.819,32.284,32.284,0,0,0,4.588-2.616c3.9-2.655,6.685-2.452,12.088-2.438,3.1.008,6.566-.056,9.086-1.8a3.92,3.92,0,0,0,1.743-1.825l-.157-.126a13.005,13.005,0,0,0-2.315.728c-2.911.752-4.932-.019-7.6-.747-3.622-.986-6.578-1.272-10.233-.148-3.525,1.084-5.446,2.675-8.195,3.685-3.721,1.367-2.659-1.01-2.693-2.125-.06-1.988-3.581-1.539-4.1-1.833Z" transform="translate(-849.004 -679.023)" fill="none" stroke="#fff" stroke-linecap="round" stroke-linejoin="round" stroke-width="1"/>
    <path id="Path_110229" data-name="Path 110229" d="M885.357,695.593c-.7.163-2.681-.157-3.2.131a8.677,8.677,0,0,0-.191.956,8.59,8.59,0,0,1-.243.855,7.075,7.075,0,0,1-2.233,3.268,7.57,7.57,0,0,0-.622.471l-.007.061c.471-.086.972-.248,1.467-.351a23.846,23.846,0,0,1,8.326-.092c1.739.268,1.115,1.417.924,2.238-.235,1.011-.305,2.38.788,2.53a5.254,5.254,0,0,0,2.788-.819,32.284,32.284,0,0,0,4.588-2.616c3.9-2.655,6.685-2.452,12.088-2.438,3.1.008,6.566-.056,9.086-1.8a3.92,3.92,0,0,0,1.743-1.825l-.157-.126a13.005,13.005,0,0,0-2.315.728c-2.911.752-4.932-.019-7.6-.747-3.622-.986-6.578-1.272-10.233-.148-3.525,1.084-5.446,2.675-8.195,3.685-3.721,1.367-2.659-1.01-2.693-2.125-.06-1.988-3.581-1.539-4.1-1.833Z" transform="translate(-849.004 -679.023)" fill="#00973d" fill-rule="evenodd"/>
    <path id="Path_110230" data-name="Path 110230" d="M934.192,806.128h3.133V809.5h-3.135v-3.374Zm23.511,3.186a3.621,3.621,0,0,0,.457-1.474,4.176,4.176,0,0,0-.21-1.693l3.113-.019c0,.64.038,2.755-.021,3.237l-3.339-.05Zm-13.8.525a15.459,15.459,0,0,0-1.841.114c-.421-.11-.873-.88-.391-1.321.4-.364,3.239-.2,3.988-.2l0-2.3h2.175v8.081l1.147.006V806.13l7.822.025a3.881,3.881,0,0,1,.215,1.574,2.445,2.445,0,0,1-.441,1.338c-.113-.057-.726-.69-1.231-.723-.534-.036-1.323-.007-1.871.01a2.844,2.844,0,0,0-2.627,1.15c-.909,1.381.226,3.02,1.162,3.978a7.247,7.247,0,0,0,.968.886l.745-.738c-.206-.216-.4-.347-.613-.535-.109-.1-.188-.21-.289-.314a3.34,3.34,0,0,1-1.105-1.7c-.3-1.748,1.394-1.714,2.782-1.678a3.927,3.927,0,0,0,.808,1.5,25.519,25.519,0,0,0,3.3,3.481l.705-.768-.252-.252c-.11-.1-.127-.124-.23-.208-.193-.157-.312-.208-.422-.441a11.583,11.583,0,0,1-2.065-2.226c.781-.345.492-.447.906-.323a14.521,14.521,0,0,0,3.817.244v2.215l0,1.592,1.145-.007v-8.08c1.7,0,4.393-.055,6.061-.008.4.011.306.052.341.121l0,4.208a3.506,3.506,0,0,1-1.76.97c-2.5.378-2.7-2.981-.013-2.947.373,0,.957.143,1.239.115a3.756,3.756,0,0,0,.028-1.061l-.717-.1a3.583,3.583,0,0,0-2.844.7,2.638,2.638,0,0,0-.639,2.7c.6,1.879,3.039,2.044,4.7,1l.006,2.39,1.139,0V806.13l1.475-.007.034-1.034c-1.818-.079-3.8-.008-5.635-.008l-11.221-.006c-.558,0-5.4.086-5.527-.043-.168-.418-.283-.985-.452-1.448-.586-1.608-1.166-2.61-3.152-2.517l-.84.19.347,1.071c1.077-.293,1.65-.321,2.195.506a7.657,7.657,0,0,1,.82,2.245H931.249l0,1.048,1.8.016v3.34c-.613.075-1.247-.036-1.245.664,0,.793,1.156,2.074,1.916,1.814.517-.177.436-.8.479-1.411l3.123.021.006,3.644h1.143v-8.084l6.042,0-.021,1.251c-1.134,0-2.72-.178-3.537.427a1.747,1.747,0,0,0,.113,2.7,3.823,3.823,0,0,0-.542.617,1.916,1.916,0,0,0-.306.847c-.184,1.509.689,2.363,1.515,3.206l.6.558c.248.218.356.337.632.546a2.732,2.732,0,0,0,.739-.739l-.142-.157a13,13,0,0,1-1.7-1.6,1.736,1.736,0,0,1,.044-2.538,2.925,2.925,0,0,1,2.844-.019,1.064,1.064,0,0,1,.236,1.282c-.287.55-.766.492-1.035.729l.384.935a2.209,2.209,0,0,0,1.873-2.369,2.276,2.276,0,0,0-2.312-1.957Z" transform="translate(-890.447 -762.813)" fill-rule="evenodd"/>
    <path id="Path_110231" data-name="Path 110231" d="M767.888,742.009a3.091,3.091,0,0,1-.3-2.163c.313-.918,1.913-1.423,3.068.39a7.3,7.3,0,0,1,.779,1.771l-3.544,0ZM745.125,743.1h2.5l.02,8.043a3.105,3.105,0,0,0,1.179,0V743.1l.887-.013,8.115-.019-.009,1.594-3.843,0-.073.208-.286.743a7.634,7.634,0,0,1,.845.745c1.152,1.148.654,3.082-.936,2.422-.947-.393-1.6-1.832-1.983-2.8-.177-.452-.292-1.051-.516-1.067l-.859.373a12.772,12.772,0,0,0,1.22,2.774c1.8,2.987,4.328,2,4.74.568.42-1.46-.512-2.274-.958-2.917l2.66,0,.007,5.432,1.144-.008v-8.072l2.172,0,.022,8.085H762.3v-8.083l5.1,0-.007,1.4c-2.168.016-3.817.888-3.486,3.239.264,1.878,2.06,2.629,4.161,2.387a9.48,9.48,0,0,0,1.057,1.894L770,751.5c-.056-.158-.663-1.014-.94-1.6a.48.48,0,0,1,.1-.078l.033-.023.172-.1a.7.7,0,0,0,.236-.26,1.285,1.285,0,0,0,.159-.78c-.063-.631-.416-.815-.906-1.019-1.079-.094-1.432.375-1.218,1.431-1.529.127-2.921-.558-2.577-2.194a1.619,1.619,0,0,1,1.245-1.229,15.812,15.812,0,0,1,2.248-.177v-2.412h2.948v4.426l.02,3.66h1.13v-8.085l1.472-.005-.018-1.048c-1.585,0-1.507.129-1.653-.325a9.714,9.714,0,0,0-1.01-2.179,3.025,3.025,0,0,0-2.184-1.489,2.479,2.479,0,0,0-2.594,1.01,3.439,3.439,0,0,0,.1,2.98l-23.823.006.023,1.047,1.013.022q0,.8,0,1.6c0,.741.058.745-.511,1.07a2.2,2.2,0,0,1-2.39-.025c.122-.28.8-.415.959-1.506.35-2.361-2.445-2.932-4.426-1.8l.387.993c.756-.316,2.2-.95,2.788-.092.473.686.014,1.889-1.616,1.764a3.7,3.7,0,0,0,.093,1.041c.756.041.674-.253,1.169.244,1.053,1.058.876,2.738-.785,2.5-1.1-.155-1.828-1.447-2.249-2.332-.082-.174-.165-.339-.243-.525-.019-.046-.1-.266-.1-.276-.127-.242.043-.129-.207-.182-.247.184-.661.192-.868.385.492,1.374,1.5,3.247,2.88,3.819,1.216.5,3.038.167,3.317-1.351.135-.734-.09-.838-.137-1.344a5.375,5.375,0,0,0,1.945-.346c0,.628-.045,4.1.03,4.425l1.118-.013.008-8.037Z" transform="translate(-735.965 -712.915)" fill-rule="evenodd"/>
    <path id="Path_110232" data-name="Path 110232" d="M803.116,820.828h3.127v3.378l-3.134-.011.006-3.367Zm-9.8,2.468.038.612c.737-.027.76-.211,1.2.236,1.076,1.089.873,2.733-.794,2.5-1.7-.24-2.5-3.218-2.723-3.316l-.922.357a8.8,8.8,0,0,0,1.873,3.19c1.22,1.257,3.9,1.238,4.3-.656a2.115,2.115,0,0,0-.15-1.355,6.576,6.576,0,0,0,1.965-.381v4.43l1.148,0,.007-8.084,2.7,0a32.877,32.877,0,0,1-.028,3.376c-.6,0-1.23-.027-1.206.687a2.518,2.518,0,0,0,.635,1.25c.172.183.79.676,1.264.527.526-.166.486-.831.486-1.413h3.132l-.007,3.649a2.04,2.04,0,0,0-.925,3.189c.773,1.107,3.106.783,3.717.226l-.3-.884c-.073-.139.037.014-.065-.091a3.852,3.852,0,0,1-1.263.44c-1.651.171-1.716-1.183-1.137-1.7.509-.455.939-.329,1.227-.514-.128-1.214-.154-7.41-.088-8.738l6.584.011-.021,2.2a17.6,17.6,0,0,0-3.257.156c-2.005.514-2.222,2.521-.98,4.206a8.85,8.85,0,0,0,1.705,1.677c.2-.267.579-.476.7-.8a5.83,5.83,0,0,1-.689-.566,3.284,3.284,0,0,1-1.347-2.436c.055-.763.615-1.071,1.378-1.146a16.116,16.116,0,0,1,2.506-.018v4.8l1.145-.03.013-8.059H816.6l-.005-1.049-19.532.013v1.032l1.033,0c.028.513.007,1.07.008,1.588,0,.782.055.766-.507,1.1-.649.384-1.905.547-2.4-.053.43-.451.85-.585.968-1.49a2.063,2.063,0,0,0-.6-1.81,2.656,2.656,0,0,0-1.919-.525,5.894,5.894,0,0,0-1.913.528l.367,1.031a5.674,5.674,0,0,1,1.424-.5,1.348,1.348,0,0,1,1.385.393,1.145,1.145,0,0,1-.166,1.381c-.522.433-1.008.243-1.443.438l.015.384Z" transform="translate(-778.803 -777.502)" fill-rule="evenodd"/>
    <path id="Path_110233" data-name="Path 110233" d="M767.676,639.611c.1-.3,3.97-7.432,4.346-8.152.9-1.718,7.152-13.142,7.141-13.458h-14.9c-.054.421-.025,1.521-.025,2.009l11.523.008-9.688,18.419a14.053,14.053,0,0,0,1.6,1.175Z" transform="translate(-758.328 -618)" fill-rule="evenodd"/>
    <path id="Path_110234" data-name="Path 110234" d="M831.686,670.6c.1.452.236.9.347,1.361.107.444.224.909.344,1.359.063.238.12.466.179.7a1.606,1.606,0,0,1,.13.637l-.359.051a.285.285,0,0,1-.024-.039c-.457-.818-.649-.046-.747.077l-.388-.019a24.631,24.631,0,0,1,.208-2.8c.039-.461.1-.969.116-1.426s-.086-.979-.037-1.41a10.092,10.092,0,0,1,.23,1.5Zm-.023-1.538c.009.012.021.015.025.036l.528,1.3c.3.6,1.921,3.417,1.983,3.739l-.329.176c-.013-.015-.027-.044-.031-.035l-.159-.177c-.172-.131-.444-.165-.5.29l-.026.157a.836.836,0,0,1-.2.056l-.224-.028c-.1-.309-.522-3.5-.7-4.214-.1-.416-.312-.9-.369-1.3Zm-2.089,5.19,1.35-3.772c.117-.4.164-1.013.3-1.381l.021.21a13.643,13.643,0,0,0-.148,2.464c0,.962-.022,1.98.037,2.936l-.406-.033c-.121-.177-.045-.377-.25-.462-.287-.119-.4.076-.436.289-.639-.128-.449-.125-.472-.252Zm7.546-3.851c.269.107-.018-.026.125.107-.21.741-.141.147-.518.383-.25.157-.125.417.024.585.061.068.028.014.083.095a5,5,0,0,0-.466.776c-.624-.33-.747.072-.468.545a1.751,1.751,0,0,0-.2.174c-.161.128-.03.174-.237.043.134.234-.076.237-.245.4-.348-.413-.8-.159-.553.382l-.438.241-1.683-3.954c-.211-.41-.488-.8-.7-1.208a8.1,8.1,0,0,1,.793,1.056c.542.677,1.821,1.98,2.465,2.7.126.141.1.156.261.255a4.551,4.551,0,0,0-.4-.555l-1.212-1.594c-.262-.337-.53-.745-.818-1.051a9.387,9.387,0,0,1-.934-.979l.985.817,3.416,2.209-3.095-2.473-1.172-.733a9.372,9.372,0,0,1,1.151.535c.407.191,3.547,1.185,3.83,1.239Zm0,0a39.4,39.4,0,0,0-4.065-1.719c-.121-.031-.238-.058-.347-.091a.936.936,0,0,1-.171-.065.389.389,0,0,1-.124-.081c.428.036.81.168,1.233.2s.884.037,1.324.055c.855.035,1.715.063,2.57.1-.038.9-.15.146-.452.653-.087.356.06.386.288.509-.037.619-.156.46-.256.443Zm-1.23-6.334c.237.087.046-.011.324.341-.31.418-.169.807.408.591.118.321.258.559.41.888-.568.518-.062.781.245.681l.2.97c-.178.118-.4.094-.346.423.041.257.245.243.416.347v.452c-.787,0-2.86-.425-3.912-.533-.454-.047-.947.007-1.415-.023.314-.192,1-.1,1.412-.185l3.7-.907a23.151,23.151,0,0,0-2.659.341,12.716,12.716,0,0,0-1.341.2c-.376.1-.786.255-1.17.328a5.94,5.94,0,0,1,1.209-.515c.369-.17.729-.417,1.087-.617s.72-.409,1.084-.621c.191-.111.336-.2.523-.3a2.173,2.173,0,0,0,.52-.336l-2.359,1.027a10.41,10.41,0,0,0-1.127.522,7.934,7.934,0,0,1-1.031.625c.15-.193,1.111-.874,1.543-1.322l2.287-2.381Zm0,0c-.9.676-1.718,1.443-2.58,2.142-.149.121-.391.306-.511.425a6.634,6.634,0,0,1-.9.951c.174-.326.559-.738.782-1.066l1.957-3.546c.188-.1,0-.041.415.141-.067.228-.168.472.033.621s.356-.024.553-.065c.095.159.2.211.247.4Zm-1.248-1.094-2.29,3.324a8.3,8.3,0,0,1-.621,1.173,10.966,10.966,0,0,1,.477-1.263c.14-.411.243-.929.351-1.355.224-.888.439-1.882.675-2.739l.425.149c-.038.241-.066.456.148.555.276.129.348-.089.48-.206.137.09.328.142.354.362Zm-2.973,3.134c.039-.446.009-.974.009-1.43,0-.956.025-1.986-.03-2.938l.436.145.014.047c.048.167.034.287.239.333.289.066.363-.089.405-.319l.485.136c-.306,1.148-1.014,2.71-1.367,3.888-.129.43-.16.948-.3,1.388l.11-1.251Zm-1.168-4.278c.31.555.628.331.662-.115l.433.021c.108.411-.29,3.358-.309,4.205-.011.467.057.952.054,1.426a1.9,1.9,0,0,1-.137-.74,40.142,40.142,0,0,0-1.151-4.812l.407-.06.043.073Zm-.926,12.423c-.1.078,0,.046-.152.041l-.348-.144a3.174,3.174,0,0,0-.477-.224l.009.543a6.385,6.385,0,0,0,3.5.788,6.534,6.534,0,0,0,5.931-6.9c-.095-4.926-4.978-8.593-9.443-6.643l.009.576.312-.131c.149.107.128.4.613.212l.1-.457c.548-.166.384-.24.6,1.111.082.5.166,1.01.247,1.514.079.489.142,1.042.25,1.505a10.38,10.38,0,0,1,.371,1.358c-.2-.3-.348-.921-.529-1.3s-.415-.811-.626-1.192l-1.31-2.377,1.627,3.822a10.555,10.555,0,0,1,.646,1.125,8.12,8.12,0,0,1-.816-1.121l-2.73-2.94a5.2,5.2,0,0,0,.417.579l1.667,2.183c.682.889,1.011,1.058,1.322,1.461a10.835,10.835,0,0,1-1.022-.826l-3.323-2.148a.577.577,0,0,0,.087.1l.058.057a1.094,1.094,0,0,0,.121.1l.774.6c.333.273.681.529,1.015.8.184.149.326.263.519.416.645.51,1.453.888,1.622,1.088-.4-.124-.765-.384-1.171-.547l-3.824-1.218c.319.184.838.38,1.2.538a24.693,24.693,0,0,0,3.06,1.229,2.359,2.359,0,0,1,.638.219c-.432-.031-.818-.164-1.244-.215l-4.1-.156c1.075.081,2.713.418,3.92.558.447.052,1.011,0,1.475.009a6.558,6.558,0,0,1-1.37.189c-.573.105-3.429.8-3.673.92.811-.042,1.816-.237,2.643-.353a16.328,16.328,0,0,0,2.449-.528c-.129.14-.3.174-.641.3a37.5,37.5,0,0,0-4.04,2.215l3.69-1.631a10.31,10.31,0,0,1,1.091-.668,12.657,12.657,0,0,1-1.008.808l-2.7,2.767c.174-.073,2.68-2.189,2.909-2.39a9.979,9.979,0,0,1,.875-.928,13.19,13.19,0,0,1-.77,1.088l-1.887,3.443,1.531-2.206c.249-.375.525-.714.755-1.115a10.591,10.591,0,0,1,.6-1.164,7.931,7.931,0,0,1-.45,1.21l-1.016,4.05Z" transform="translate(-806.542 -652.161)" fill-rule="evenodd"/>
    <path id="Path_110235" data-name="Path 110235" d="M814.071,630.236l1.521.773,6.022-10.988,8.042-.007a14.9,14.9,0,0,0-.034-2.008h-8.972l-6.58,12.229Z" transform="translate(-797.751 -618.005)" fill-rule="evenodd"/>
    <path id="Path_110236" data-name="Path 110236" d="M922.415,773.08l3.512.009a22.565,22.565,0,0,1,.021,2.438c.005.585-.131.563-.453.793-1.15.823-2.206-.138-1.754-1.151.276-.619,1.088-.546,1.848-.431l.058-.717a1.068,1.068,0,0,1-.453-.106c-.564.123-1.182-.13-1.847.53a1.687,1.687,0,0,0,.9,2.848,2.135,2.135,0,0,0,1.695-.486v1.663h.767c0-.67,0-1.342,0-2.012,0-.467-.063-.481.214-.744.967-.921,1.569-.383,1.528.526a2.961,2.961,0,0,1-.519,1.45l.672.377a3.513,3.513,0,0,0,.614-2,1.4,1.4,0,0,0-1.055-1.488c-.88-.074-.9.1-1.455.423v-1.93h3.55v1.345l.022,4.046h.743l0-5.39.976,0,.007-.695h-9.568l-.027.7Z" transform="translate(-883.458 -740.126)" fill-rule="evenodd"/>
    <path id="Path_110237" data-name="Path 110237" d="M818.386,801.977c.4-1.084-1.129-1.645-1.459-.63a.8.8,0,1,0,1.459.63Z" transform="translate(-799.966 -762.618)" fill="#000104" fill-rule="evenodd"/>
  </g>
</svg>
