<svg version="1.2" xmlns="http://www.w3.org/2000/svg" viewBox="0 0 11 19" width="11" height="19">
	<title>Icon ionic-ios-arrow-forward-svg</title>
	<style>
		.s0 { fill: #ffffff } 
	</style>
	<path id="Icon_ionic-ios-arrow-forward" class="s0" d="m7.6 9.5l-7.2-7.2q-0.2-0.2-0.3-0.4-0.1-0.3-0.1-0.6 0-0.2 0.1-0.5 0.1-0.2 0.3-0.4 0.2-0.2 0.4-0.3 0.3-0.1 0.6-0.1 0.2 0 0.5 0.1 0.2 0.1 0.4 0.3l8.1 8.1q0.2 0.2 0.3 0.4 0.1 0.3 0.1 0.5 0 0.3-0.1 0.5-0.1 0.3-0.2 0.5l-8.2 8.1c-0.2 0.3-0.6 0.4-0.9 0.4-0.4 0-0.7-0.1-1-0.4-0.2-0.2-0.4-0.6-0.4-0.9 0-0.4 0.2-0.7 0.4-1z"/>
</svg>