<svg xmlns="http://www.w3.org/2000/svg" width="205.6" height="55.85" viewBox="0 0 205.6 55.85">
  <g id="logo.f9fcba1" transform="translate(-44.7 -8.3)">
    <path id="Path_106675" data-name="Path 106675" d="M67.38,11.68V32.32c0,2.38.09,4.89.18,6.32h-6.1l-.32-3.12h-.09a7.789,7.789,0,0,1-6.91,3.59c-5.24,0-9.44-4.29-9.44-10.87-.05-7.15,4.61-11.26,9.89-11.26,2.71,0,4.83.91,5.82,2.38h.09v-7.7h6.88ZM60.52,26.43a11.3,11.3,0,0,0-.09-1.17,4.09,4.09,0,0,0-4.02-3.25c-3.12,0-4.74,2.68-4.74,6.02,0,3.59,1.85,5.85,4.7,5.85a3.967,3.967,0,0,0,3.97-3.16,5.584,5.584,0,0,0,.18-1.51Z" fill="#233f7f"/>
    <path id="Path_106676" data-name="Path 106676" d="M89.06,33.49a32.4,32.4,0,0,0,.31,5.16H83.19l-.4-2.12h-.14a8.1,8.1,0,0,1-6.32,2.6c-4.47,0-7.13-3.12-7.13-6.5,0-5.5,5.15-8.14,12.96-8.1v-.3c0-1.13-.63-2.73-4.02-2.73a12.729,12.729,0,0,0-6.09,1.6l-1.26-4.24A18.916,18.916,0,0,1,79.37,17c7.36,0,9.71,4.16,9.71,9.14v7.35Zm-6.68-4.85c-3.61-.04-6.41.78-6.41,3.33a2.418,2.418,0,0,0,2.71,2.51,3.751,3.751,0,0,0,3.57-2.42,4.6,4.6,0,0,0,.14-1.13V28.64Z" fill="#233f7f"/>
    <path id="Path_106677" data-name="Path 106677" d="M99.53,11.63v5.84h4.92v4.85H99.53v7.66c0,2.56.63,3.73,2.71,3.73a9.043,9.043,0,0,0,2.03-.17l.04,4.98a13.922,13.922,0,0,1-4.47.61,7.361,7.361,0,0,1-5.15-1.86c-1.26-1.26-1.9-3.29-1.9-6.28V22.33H89.86V17.48h2.93V11.64h6.74Z" fill="#233f7f"/>
    <path id="Path_106678" data-name="Path 106678" d="M125.32,33.49a32.4,32.4,0,0,0,.31,5.16h-6.18l-.41-2.12h-.13a8.113,8.113,0,0,1-6.32,2.6c-4.47,0-7.13-3.12-7.13-6.5,0-5.5,5.15-8.14,12.96-8.1v-.3c0-1.13-.63-2.73-4.02-2.73a12.8,12.8,0,0,0-6.1,1.6l-1.27-4.24A18.881,18.881,0,0,1,115.61,17c7.36,0,9.71,4.16,9.71,9.14v7.35Zm-6.68-4.85c-3.61-.04-6.41.78-6.41,3.33a2.418,2.418,0,0,0,2.71,2.51,3.751,3.751,0,0,0,3.57-2.42,4.6,4.6,0,0,0,.13-1.13V28.64Z" fill="#233f7f"/>
    <path id="Path_106679" data-name="Path 106679" d="M157.52,36.97c0,4.07-.86,7.4-3.34,9.53-2.44,1.99-5.74,2.6-8.99,2.6a17.674,17.674,0,0,1-7.94-1.65l1.35-4.98a14.026,14.026,0,0,0,6.41,1.6c3.25,0,5.73-1.69,5.73-5.59V37.1h-.09a7.181,7.181,0,0,1-5.96,2.77c-5.46,0-9.35-4.24-9.35-10.35,0-6.8,4.61-11.13,10.02-11.13a6.734,6.734,0,0,1,6.05,2.99h.09l.23-2.51h5.96c-.09,1.34-.18,3.12-.18,6.28V36.97Zm-6.86-9.49a5.54,5.54,0,0,0-.13-1.21,3.736,3.736,0,0,0-3.7-2.9c-2.48,0-4.51,2.17-4.51,6.02,0,3.16,1.63,5.63,4.51,5.63a3.712,3.712,0,0,0,3.62-2.69,5.369,5.369,0,0,0,.22-1.73V27.48Z" fill="#233f7f"/>
    <path id="Path_106680" data-name="Path 106680" d="M182.58,29.22c0,7.75-5.73,11.3-11.65,11.3-6.46,0-11.42-4.07-11.42-10.91s4.69-11.22,11.78-11.22c6.77,0,11.29,4.46,11.29,10.83m-15.99.21c0,3.64,1.58,6.37,4.52,6.37,2.66,0,4.38-2.56,4.38-6.37,0-3.16-1.27-6.37-4.38-6.37-3.3.01-4.52,3.25-4.52,6.37" fill="#233f7f"/>
    <path id="Path_106681" data-name="Path 106681" d="M189.26,18.87l2.98,9.83a48.853,48.853,0,0,1,1.27,5.15h.13c.36-1.73.72-3.34,1.22-5.15l2.84-9.83h7.22L196.7,40.05h-6.87L181.8,18.87h7.46Z" fill="#233f7f"/>
    <path id="Path_106682" data-name="Path 106682" d="M134.84,35.69a3.382,3.382,0,0,1-3.7,3.29,3.326,3.326,0,1,1,.04-6.63,3.388,3.388,0,0,1,3.66,3.34" fill="#233f7f"/>
    <path id="Path_106683" data-name="Path 106683" d="M228.99,8.3A21.315,21.315,0,1,0,250.3,29.61,21.309,21.309,0,0,0,228.99,8.3Zm-7.67,31.74h-6.86V18.87h6.86Zm17.34,0V28.3c0-2.73-.99-4.59-3.47-4.59a3.635,3.635,0,0,0-3.48,2.47,4.565,4.565,0,0,0-.27,1.65V40.04h-6.86V25.62c0-2.64-.09-4.9-.18-6.76h5.96l.31,2.9h.14a8.173,8.173,0,0,1,6.82-3.38c4.52,0,7.9,2.86,7.9,9.1V40.04Z" fill="#f7931e"/>
    <g id="Group_47767" data-name="Group 47767">
      <g id="Group_47766" data-name="Group 47766">
        <path id="Path_106684" data-name="Path 106684" d="M51.64,58.39a3.781,3.781,0,0,1-.84,2.6,2.943,2.943,0,0,1-2.32.95,2.986,2.986,0,0,1-2.35-.93,4.55,4.55,0,0,1,0-5.24,2.986,2.986,0,0,1,2.35-.93,2.936,2.936,0,0,1,2.32.94A3.808,3.808,0,0,1,51.64,58.39Zm-5.48,0a3.248,3.248,0,0,0,.6,2.12,2.438,2.438,0,0,0,3.46,0,4.146,4.146,0,0,0,0-4.23,2.082,2.082,0,0,0-1.72-.72,2.136,2.136,0,0,0-1.74.72A3.2,3.2,0,0,0,46.16,58.39Z" fill="#666"/>
        <path id="Path_106685" data-name="Path 106685" d="M55.46,61.93a2.134,2.134,0,0,1-.92-.19,1.673,1.673,0,0,1-.7-.57h-.06a6.553,6.553,0,0,1,.06.86v2.12h-.78V56.67h.64l.11.71h.04a1.753,1.753,0,0,1,.7-.61,2.073,2.073,0,0,1,.92-.19,1.894,1.894,0,0,1,1.58.7,3.734,3.734,0,0,1-.01,3.95A1.92,1.92,0,0,1,55.46,61.93Zm-.11-4.68a1.372,1.372,0,0,0-1.14.44,2.183,2.183,0,0,0-.36,1.39v.17a2.637,2.637,0,0,0,.36,1.56,1.382,1.382,0,0,0,1.16.47,1.206,1.206,0,0,0,1.05-.54,2.586,2.586,0,0,0,.38-1.49,2.487,2.487,0,0,0-.38-1.48A1.248,1.248,0,0,0,55.35,57.25Z" fill="#666"/>
        <path id="Path_106686" data-name="Path 106686" d="M61.15,61.93a2.38,2.38,0,0,1-1.81-.7,2.7,2.7,0,0,1-.66-1.94,2.986,2.986,0,0,1,.61-1.98,2.037,2.037,0,0,1,1.65-.73,1.943,1.943,0,0,1,1.54.64,2.426,2.426,0,0,1,.57,1.68v.49H59.49a2.055,2.055,0,0,0,.46,1.38,1.6,1.6,0,0,0,1.23.47,4.181,4.181,0,0,0,1.65-.35v.7a5.084,5.084,0,0,1-.78.26A3.955,3.955,0,0,1,61.15,61.93Zm-.21-4.69a1.267,1.267,0,0,0-.99.4,1.875,1.875,0,0,0-.44,1.12h2.7a1.711,1.711,0,0,0-.33-1.13A1.159,1.159,0,0,0,60.94,57.24Z" fill="#666"/>
        <path id="Path_106687" data-name="Path 106687" d="M67.91,61.84V58.5a1.356,1.356,0,0,0-.29-.94,1.156,1.156,0,0,0-.9-.31,1.5,1.5,0,0,0-1.19.44,2.211,2.211,0,0,0-.38,1.45v2.71h-.78V56.69h.64l.13.71h.04a1.608,1.608,0,0,1,.67-.59,2.192,2.192,0,0,1,.97-.21,1.641,1.641,0,0,1,1.87,1.89v3.37h-.78Z" fill="#666"/>
        <path id="Path_106688" data-name="Path 106688" d="M75.95,58.23h2.34v3.35a6.891,6.891,0,0,1-1.11.26,8.417,8.417,0,0,1-1.31.09A3.165,3.165,0,0,1,73.44,61a3.674,3.674,0,0,1-.87-2.61A3.894,3.894,0,0,1,73,56.51a2.887,2.887,0,0,1,1.24-1.23,4.066,4.066,0,0,1,1.9-.43,5.175,5.175,0,0,1,2.05.41l-.31.71a4.655,4.655,0,0,0-1.79-.4,2.554,2.554,0,0,0-1.96.75,2.914,2.914,0,0,0-.71,2.08,2.973,2.973,0,0,0,.68,2.11,2.617,2.617,0,0,0,2,.72,5.478,5.478,0,0,0,1.4-.17V58.94H75.96v-.71Z" fill="#666"/>
        <path id="Path_106689" data-name="Path 106689" d="M84.28,59.25a2.815,2.815,0,0,1-.64,1.97,2.246,2.246,0,0,1-1.76.71,2.311,2.311,0,0,1-1.23-.33,2.209,2.209,0,0,1-.83-.93,3.16,3.16,0,0,1-.29-1.42,2.86,2.86,0,0,1,.63-1.97,2.232,2.232,0,0,1,1.75-.7,2.177,2.177,0,0,1,1.72.72A2.77,2.77,0,0,1,84.28,59.25Zm-3.93,0a2.426,2.426,0,0,0,.4,1.51,1.354,1.354,0,0,0,1.16.52,1.385,1.385,0,0,0,1.17-.52,3.031,3.031,0,0,0,0-3.01,1.413,1.413,0,0,0-1.18-.51,1.394,1.394,0,0,0-1.16.5A2.494,2.494,0,0,0,80.35,59.25Z" fill="#666"/>
        <path id="Path_106690" data-name="Path 106690" d="M86.79,61.84l-1.96-5.16h.84l1.11,3.06a14.092,14.092,0,0,1,.44,1.39h.04a7.963,7.963,0,0,1,.33-1.03c.18-.52.6-1.66,1.24-3.42h.84l-1.96,5.16Z" fill="#666"/>
        <path id="Path_106691" data-name="Path 106691" d="M92.67,61.93a2.38,2.38,0,0,1-1.81-.7,2.7,2.7,0,0,1-.66-1.94,2.986,2.986,0,0,1,.61-1.98,2.037,2.037,0,0,1,1.65-.73,1.943,1.943,0,0,1,1.54.64,2.426,2.426,0,0,1,.57,1.68v.49H91.01a2.055,2.055,0,0,0,.46,1.38,1.6,1.6,0,0,0,1.23.47,4.181,4.181,0,0,0,1.65-.35v.7a5.084,5.084,0,0,1-.78.26A4.011,4.011,0,0,1,92.67,61.93Zm-.21-4.69a1.267,1.267,0,0,0-.99.4,1.875,1.875,0,0,0-.44,1.12h2.7a1.711,1.711,0,0,0-.33-1.13A1.172,1.172,0,0,0,92.46,57.24Z" fill="#666"/>
        <path id="Path_106692" data-name="Path 106692" d="M98.25,56.58a2.964,2.964,0,0,1,.62.06l-.11.72a2.44,2.44,0,0,0-.56-.07,1.373,1.373,0,0,0-1.07.51,1.844,1.844,0,0,0-.45,1.27v2.77H95.9V56.68h.65l.09.96h.04a2.2,2.2,0,0,1,.69-.78A1.464,1.464,0,0,1,98.25,56.58Z" fill="#666"/>
        <path id="Path_106693" data-name="Path 106693" d="M103.37,61.84V58.5a1.356,1.356,0,0,0-.29-.94,1.156,1.156,0,0,0-.9-.31,1.5,1.5,0,0,0-1.19.44,2.211,2.211,0,0,0-.38,1.45v2.71h-.78V56.69h.64l.13.71h.04a1.608,1.608,0,0,1,.67-.59,2.192,2.192,0,0,1,.97-.21,1.641,1.641,0,0,1,1.87,1.89v3.37h-.78Z" fill="#666"/>
        <path id="Path_106694" data-name="Path 106694" d="M112.33,61.84V58.48a1.452,1.452,0,0,0-.26-.93,1.014,1.014,0,0,0-.82-.31,1.317,1.317,0,0,0-1.08.42,2.007,2.007,0,0,0-.35,1.29v2.88h-.78V58.47a1.452,1.452,0,0,0-.26-.93,1.014,1.014,0,0,0-.82-.31,1.3,1.3,0,0,0-1.08.44,2.346,2.346,0,0,0-.34,1.44v2.71h-.78V56.66h.64l.13.71h.04a1.6,1.6,0,0,1,.62-.59,1.926,1.926,0,0,1,.9-.21,1.524,1.524,0,0,1,1.58.88h.04a1.656,1.656,0,0,1,.67-.64,2.027,2.027,0,0,1,1-.24,1.749,1.749,0,0,1,1.31.45,2.017,2.017,0,0,1,.44,1.44v3.37h-.8Z" fill="#666"/>
        <path id="Path_106695" data-name="Path 106695" d="M116.91,61.93a2.38,2.38,0,0,1-1.81-.7,2.7,2.7,0,0,1-.66-1.94,2.986,2.986,0,0,1,.61-1.98,2.037,2.037,0,0,1,1.65-.73,1.943,1.943,0,0,1,1.54.64,2.426,2.426,0,0,1,.57,1.68v.49h-3.56a2.055,2.055,0,0,0,.46,1.38,1.6,1.6,0,0,0,1.23.47,4.181,4.181,0,0,0,1.65-.35v.7a5.084,5.084,0,0,1-.78.26A4.011,4.011,0,0,1,116.91,61.93Zm-.21-4.69a1.267,1.267,0,0,0-.99.4,1.875,1.875,0,0,0-.44,1.12h2.7a1.711,1.711,0,0,0-.33-1.13A1.172,1.172,0,0,0,116.7,57.24Z" fill="#666"/>
        <path id="Path_106696" data-name="Path 106696" d="M123.67,61.84V58.5a1.356,1.356,0,0,0-.29-.94,1.156,1.156,0,0,0-.9-.31,1.5,1.5,0,0,0-1.19.44,2.211,2.211,0,0,0-.38,1.45v2.71h-.78V56.69h.64l.13.71h.04a1.608,1.608,0,0,1,.67-.59,2.192,2.192,0,0,1,.97-.21,1.641,1.641,0,0,1,1.87,1.89v3.37h-.78Z" fill="#666"/>
        <path id="Path_106697" data-name="Path 106697" d="M127.73,61.29a2.6,2.6,0,0,0,.4-.03c.13-.02.23-.04.31-.06v.6a1.576,1.576,0,0,1-.37.1,2.394,2.394,0,0,1-.44.04c-1,0-1.5-.53-1.5-1.58V57.29h-.74v-.38l.74-.33.33-1.1h.45v1.2h1.5v.61h-1.5v3.04a1.052,1.052,0,0,0,.22.72A.789.789,0,0,0,127.73,61.29Z" fill="#666"/>
        <path id="Path_106698" data-name="Path 106698" d="M137.58,58.33a3.467,3.467,0,0,1-.93,2.61,3.66,3.66,0,0,1-2.66.9h-1.91V54.95h2.11a3.409,3.409,0,0,1,2.5.89A3.36,3.36,0,0,1,137.58,58.33Zm-.84.03a2.78,2.78,0,0,0-.68-2.03,2.729,2.729,0,0,0-2.01-.68h-1.16v5.5h.97a3.005,3.005,0,0,0,2.15-.7A2.824,2.824,0,0,0,136.74,58.36Z" fill="#666"/>
        <path id="Path_106699" data-name="Path 106699" d="M142.17,61.84l-.16-.73h-.04a2.266,2.266,0,0,1-.77.66,2.292,2.292,0,0,1-.96.17,1.69,1.69,0,0,1-1.2-.4,1.446,1.446,0,0,1-.44-1.13c0-1.04.83-1.59,2.5-1.64l.88-.03v-.32a1.343,1.343,0,0,0-.26-.9,1.08,1.08,0,0,0-.84-.29,3.321,3.321,0,0,0-1.46.4l-.24-.6a3.5,3.5,0,0,1,.84-.33,3.555,3.555,0,0,1,.91-.12,1.985,1.985,0,0,1,1.37.41,1.689,1.689,0,0,1,.45,1.31v3.52h-.58Zm-1.76-.55a1.579,1.579,0,0,0,1.15-.4,1.478,1.478,0,0,0,.42-1.12V59.3l-.78.03a2.8,2.8,0,0,0-1.34.29.884.884,0,0,0-.41.8.828.828,0,0,0,.26.65A1.011,1.011,0,0,0,140.41,61.29Z" fill="#666"/>
        <path id="Path_106700" data-name="Path 106700" d="M146.03,61.29a2.6,2.6,0,0,0,.4-.03c.13-.02.23-.04.31-.06v.6a1.576,1.576,0,0,1-.37.1,2.394,2.394,0,0,1-.44.04c-1,0-1.5-.53-1.5-1.58V57.29h-.74v-.38l.74-.33.33-1.1h.45v1.2h1.5v.61h-1.5v3.04a1.052,1.052,0,0,0,.22.72A.789.789,0,0,0,146.03,61.29Z" fill="#666"/>
        <path id="Path_106701" data-name="Path 106701" d="M150.94,61.84l-.16-.73h-.04a2.266,2.266,0,0,1-.77.66,2.292,2.292,0,0,1-.96.17,1.69,1.69,0,0,1-1.2-.4,1.446,1.446,0,0,1-.44-1.13c0-1.04.83-1.59,2.5-1.64l.88-.03v-.32a1.343,1.343,0,0,0-.26-.9,1.08,1.08,0,0,0-.84-.29,3.321,3.321,0,0,0-1.46.4l-.24-.6a3.5,3.5,0,0,1,.84-.33,3.555,3.555,0,0,1,.91-.12,1.985,1.985,0,0,1,1.37.41,1.689,1.689,0,0,1,.45,1.31v3.52h-.58Zm-1.76-.55a1.579,1.579,0,0,0,1.15-.4,1.478,1.478,0,0,0,.42-1.12V59.3l-.78.03a2.8,2.8,0,0,0-1.34.29.884.884,0,0,0-.41.8.828.828,0,0,0,.26.65A1.011,1.011,0,0,0,149.18,61.29Z" fill="#666"/>
        <path id="Path_106702" data-name="Path 106702" d="M155.2,59.2a7.446,7.446,0,0,1,.36-2.34,5.815,5.815,0,0,1,1.05-1.91h.76a6.754,6.754,0,0,0-1.02,2,7.328,7.328,0,0,0-.34,2.24,7.241,7.241,0,0,0,.35,2.21,7.037,7.037,0,0,0,1,1.97h-.75a5.527,5.527,0,0,1-1.05-1.87A7.2,7.2,0,0,1,155.2,59.2Z" fill="#666"/>
        <path id="Path_106703" data-name="Path 106703" d="M164.59,58.39a3.781,3.781,0,0,1-.84,2.6,2.95,2.95,0,0,1-2.33.95,2.986,2.986,0,0,1-2.35-.93,4.55,4.55,0,0,1,0-5.24,2.986,2.986,0,0,1,2.35-.93,2.936,2.936,0,0,1,2.32.94A3.763,3.763,0,0,1,164.59,58.39Zm-5.49,0a3.247,3.247,0,0,0,.6,2.12,2.438,2.438,0,0,0,3.46,0,4.146,4.146,0,0,0,0-4.23,2.082,2.082,0,0,0-1.72-.72,2.136,2.136,0,0,0-1.74.72A3.255,3.255,0,0,0,159.1,58.39Z" fill="#666"/>
        <path id="Path_106704" data-name="Path 106704" d="M169.15,58.23h2.34v3.35a6.89,6.89,0,0,1-1.11.26,8.417,8.417,0,0,1-1.31.09,3.165,3.165,0,0,1-2.43-.93,3.674,3.674,0,0,1-.87-2.61,3.894,3.894,0,0,1,.43-1.88,2.887,2.887,0,0,1,1.24-1.23,4.066,4.066,0,0,1,1.9-.43,5.175,5.175,0,0,1,2.05.41l-.31.71a4.655,4.655,0,0,0-1.79-.4,2.554,2.554,0,0,0-1.96.75,2.914,2.914,0,0,0-.71,2.08,2.973,2.973,0,0,0,.68,2.11,2.617,2.617,0,0,0,2,.72,5.478,5.478,0,0,0,1.4-.17V58.94h-1.54v-.71Z" fill="#666"/>
        <path id="Path_106705" data-name="Path 106705" d="M178.64,58.33a3.467,3.467,0,0,1-.93,2.61,3.66,3.66,0,0,1-2.66.9h-1.91V54.95h2.11a3.092,3.092,0,0,1,3.39,3.38Zm-.85.03a2.78,2.78,0,0,0-.68-2.03,2.729,2.729,0,0,0-2.01-.68h-1.16v5.5h.98a3.005,3.005,0,0,0,2.15-.7A2.82,2.82,0,0,0,177.79,58.36Z" fill="#666"/>
        <path id="Path_106706" data-name="Path 106706" d="M181.7,59.2a7.17,7.17,0,0,1-.36,2.31,5.481,5.481,0,0,1-1.05,1.86h-.75a6.657,6.657,0,0,0,1-1.97,7.241,7.241,0,0,0,.35-2.21,7.375,7.375,0,0,0-.34-2.24,6.754,6.754,0,0,0-1.02-2h.76a5.815,5.815,0,0,1,1.05,1.91A7.446,7.446,0,0,1,181.7,59.2Z" fill="#666"/>
        <path id="Path_106707" data-name="Path 106707" d="M189.9,56.96a1.947,1.947,0,0,1-.71,1.61,3.216,3.216,0,0,1-2.04.56h-.81v2.71h-.8V54.95h1.78Q189.9,54.95,189.9,56.96Zm-3.56,1.48h.72a2.68,2.68,0,0,0,1.54-.34,1.266,1.266,0,0,0,.48-1.1,1.193,1.193,0,0,0-.45-1.02,2.353,2.353,0,0,0-1.39-.33h-.9Z" fill="#666"/>
        <path id="Path_106708" data-name="Path 106708" d="M192.01,61.84h-.78V54.51h.78Z" fill="#666"/>
        <path id="Path_106709" data-name="Path 106709" d="M196.84,61.84l-.16-.73h-.04a2.266,2.266,0,0,1-.77.66,2.292,2.292,0,0,1-.96.17,1.69,1.69,0,0,1-1.2-.4,1.446,1.446,0,0,1-.44-1.13c0-1.04.83-1.59,2.5-1.64l.88-.03v-.32a1.343,1.343,0,0,0-.26-.9,1.08,1.08,0,0,0-.84-.29,3.321,3.321,0,0,0-1.46.4l-.24-.6a3.5,3.5,0,0,1,.84-.33,3.555,3.555,0,0,1,.91-.12,1.985,1.985,0,0,1,1.37.41,1.687,1.687,0,0,1,.44,1.31v3.52h-.57Zm-1.77-.55a1.579,1.579,0,0,0,1.15-.4,1.478,1.478,0,0,0,.42-1.12V59.3l-.78.03a2.8,2.8,0,0,0-1.34.29.864.864,0,0,0-.41.8.828.828,0,0,0,.26.65A1.029,1.029,0,0,0,195.07,61.29Z" fill="#666"/>
        <path id="Path_106710" data-name="Path 106710" d="M200.7,61.29a2.6,2.6,0,0,0,.4-.03c.13-.02.23-.04.31-.06v.6a1.576,1.576,0,0,1-.37.1,2.5,2.5,0,0,1-.45.04c-1,0-1.5-.53-1.5-1.58V57.29h-.74v-.38l.74-.33.33-1.1h.45v1.2h1.5v.61h-1.5v3.04a1.052,1.052,0,0,0,.22.72A.828.828,0,0,0,200.7,61.29Z" fill="#666"/>
        <path id="Path_106711" data-name="Path 106711" d="M204.76,57.28h-1.31v4.55h-.78V57.28h-.92v-.35l.92-.28v-.29c0-1.27.55-1.9,1.66-1.9a3.138,3.138,0,0,1,.96.17l-.2.63a2.523,2.523,0,0,0-.77-.15.749.749,0,0,0-.65.29,1.654,1.654,0,0,0-.21.94v.33h1.31v.61Z" fill="#666"/>
        <path id="Path_106712" data-name="Path 106712" d="M210.16,59.25a2.815,2.815,0,0,1-.64,1.97,2.246,2.246,0,0,1-1.76.71,2.311,2.311,0,0,1-1.23-.33,2.209,2.209,0,0,1-.83-.93,3.3,3.3,0,0,1-.29-1.42,2.86,2.86,0,0,1,.63-1.97,2.232,2.232,0,0,1,1.75-.7,2.177,2.177,0,0,1,1.72.72A2.817,2.817,0,0,1,210.16,59.25Zm-3.94,0a2.426,2.426,0,0,0,.4,1.51,1.354,1.354,0,0,0,1.16.52,1.385,1.385,0,0,0,1.17-.52,3.031,3.031,0,0,0,0-3.01,1.413,1.413,0,0,0-1.18-.51,1.394,1.394,0,0,0-1.16.5A2.494,2.494,0,0,0,206.22,59.25Z" fill="#666"/>
        <path id="Path_106713" data-name="Path 106713" d="M213.88,56.58a2.964,2.964,0,0,1,.62.06l-.11.72a2.456,2.456,0,0,0-.57-.07,1.373,1.373,0,0,0-1.07.51,1.837,1.837,0,0,0-.44,1.27v2.77h-.78V56.68h.65l.09.96h.04a2.2,2.2,0,0,1,.69-.78A1.464,1.464,0,0,1,213.88,56.58Z" fill="#666"/>
        <path id="Path_106714" data-name="Path 106714" d="M222.04,61.84V58.48a1.452,1.452,0,0,0-.26-.93,1.014,1.014,0,0,0-.82-.31,1.317,1.317,0,0,0-1.08.42,2.007,2.007,0,0,0-.35,1.29v2.88h-.78V58.47a1.452,1.452,0,0,0-.26-.93,1.014,1.014,0,0,0-.82-.31,1.3,1.3,0,0,0-1.08.44,2.346,2.346,0,0,0-.34,1.44v2.71h-.78V56.66h.64l.13.71h.04a1.6,1.6,0,0,1,.62-.59,1.926,1.926,0,0,1,.9-.21,1.524,1.524,0,0,1,1.58.88h.04a1.656,1.656,0,0,1,.67-.64,2.054,2.054,0,0,1,1-.24,1.749,1.749,0,0,1,1.31.45,2.017,2.017,0,0,1,.44,1.44v3.37h-.8Z" fill="#666"/>
        <path id="Path_106715" data-name="Path 106715" d="M227.06,61.84V54.95h.8v6.89Z" fill="#666"/>
        <path id="Path_106716" data-name="Path 106716" d="M233.16,61.84V58.5a1.356,1.356,0,0,0-.29-.94,1.156,1.156,0,0,0-.9-.31,1.5,1.5,0,0,0-1.19.44,2.211,2.211,0,0,0-.38,1.45v2.71h-.78V56.69h.64l.13.71h.04a1.608,1.608,0,0,1,.67-.59,2.192,2.192,0,0,1,.97-.21,1.641,1.641,0,0,1,1.87,1.89v3.37h-.78Z" fill="#666"/>
        <path id="Path_106717" data-name="Path 106717" d="M239.06,61.15h-.04a1.847,1.847,0,0,1-1.62.79,1.928,1.928,0,0,1-1.58-.69,3.734,3.734,0,0,1,.01-3.95,1.908,1.908,0,0,1,1.57-.71,1.866,1.866,0,0,1,1.61.76h.06l-.03-.37-.02-.36v-2.1h.78v7.33h-.64Zm-1.56.13a1.429,1.429,0,0,0,1.16-.44,2.209,2.209,0,0,0,.36-1.41v-.16a2.652,2.652,0,0,0-.36-1.57,1.39,1.39,0,0,0-1.17-.47,1.2,1.2,0,0,0-1.05.53,2.7,2.7,0,0,0-.36,1.51,2.538,2.538,0,0,0,.36,1.49A1.2,1.2,0,0,0,237.5,61.28Z" fill="#666"/>
        <path id="Path_106718" data-name="Path 106718" d="M241.4,55.28a.5.5,0,0,1,.13-.39.479.479,0,0,1,.33-.12.46.46,0,0,1,.33.13.479.479,0,0,1,.14.39.467.467,0,0,1-.14.39.507.507,0,0,1-.33.13.445.445,0,0,1-.33-.13A.552.552,0,0,1,241.4,55.28Zm.84,6.56h-.78V56.68h.78Z" fill="#666"/>
        <path id="Path_106719" data-name="Path 106719" d="M247.07,61.84l-.16-.73h-.04a2.266,2.266,0,0,1-.77.66,2.292,2.292,0,0,1-.96.17,1.69,1.69,0,0,1-1.2-.4,1.446,1.446,0,0,1-.44-1.13c0-1.04.83-1.59,2.5-1.64l.88-.03v-.32a1.343,1.343,0,0,0-.26-.9,1.08,1.08,0,0,0-.84-.29,3.321,3.321,0,0,0-1.46.4l-.24-.6a3.5,3.5,0,0,1,.84-.33,3.555,3.555,0,0,1,.91-.12,1.985,1.985,0,0,1,1.37.41,1.687,1.687,0,0,1,.44,1.31v3.52h-.57Zm-1.76-.55a1.579,1.579,0,0,0,1.15-.4,1.478,1.478,0,0,0,.42-1.12V59.3l-.78.03a2.8,2.8,0,0,0-1.34.29.864.864,0,0,0-.41.8.828.828,0,0,0,.26.65A1.011,1.011,0,0,0,245.31,61.29Z" fill="#666"/>
      </g>
    </g>
  </g>
</svg>
