<svg xmlns="http://www.w3.org/2000/svg" width="62.968" height="52.609" viewBox="0 0 62.968 52.609">
  <style>
		.s0 { fill: #ffffff;stroke: #ffffff;stroke-width: .4 } 
	</style>
  <path class="s0" id="Path_110289" data-name="Path 110289" d="M663,1007.859c-1.52.543-2.932,1-4.294,1.575-.265.112-.469.685-.473,1.048-.036,3.349-.105,6.7.011,10.048a3.869,3.869,0,0,1-2.288,4.039,40.715,40.715,0,0,1-7.6,2.654,40.035,40.035,0,0,1-20.212-.85,23.247,23.247,0,0,1-4.585-2.114,3.591,3.591,0,0,1-1.8-3.456c.066-3.429,0-6.861.037-10.291a1.146,1.146,0,0,0-.909-1.3c-3.389-1.171-6.755-2.406-10.141-3.585-.947-.33-1.723-.775-1.737-1.889s.758-1.589,1.7-1.921c9.387-3.3,18.765-6.629,28.164-9.9a3.6,3.6,0,0,1,2.2-.023c9.4,3.265,18.778,6.591,28.164,9.9.929.327,1.73.776,1.741,1.9s-.743,1.588-1.69,1.928c-2.657.952-2.652.968-2.652,3.782,0,4.561.013,9.121-.013,13.681a1.549,1.549,0,0,0,.869,1.615,5.38,5.38,0,0,1,.019,9.424,1.515,1.515,0,0,0-.89,1.6c.046,1.734.019,3.47.013,5.206-.005,1.513-.659,2.382-1.792,2.4s-1.836-.857-1.842-2.347c-.007-1.816-.023-3.633.01-5.448a1.237,1.237,0,0,0-.735-1.321,5.149,5.149,0,0,1-2.905-4.809,5.391,5.391,0,0,1,2.9-4.841c.3-.178.7-.533.7-.81C663.012,1018.516,663,1013.274,663,1007.859Zm-46.583-4.133c.358.157.528.245.707.308,7.4,2.628,14.788,5.265,22.2,7.857a2.631,2.631,0,0,0,1.6-.062c3.311-1.14,6.6-2.34,9.9-3.514,4.2-1.493,8.4-2.98,12.791-4.538-.475-.208-.755-.352-1.048-.455-7.249-2.56-14.495-5.13-21.76-7.645a3.009,3.009,0,0,0-1.833.062c-7.071,2.458-14.127,4.962-21.186,7.457C617.378,1003.339,616.98,1003.507,616.417,1003.726Zm38.154,7.134c-4.6,1.629-8.986,3.218-13.4,4.711a3.894,3.894,0,0,1-2.308,0c-3.4-1.124-6.765-2.364-10.142-3.561-1.051-.372-2.105-.736-3.292-1.15v7.77c0,2.941-.013,2.979,2.855,3.959a36.326,36.326,0,0,0,18.378,1.253,49.045,49.045,0,0,0,7.015-2.133,1.538,1.538,0,0,0,.86-1.112C654.6,1017.419,654.571,1014.236,654.571,1010.86Zm10.262,20.389a1.859,1.859,0,0,0,1.8-1.872,1.815,1.815,0,0,0-3.63.029A1.852,1.852,0,0,0,664.833,1031.249Z" transform="translate(-608.513 -991.225)" stroke="#fff" stroke-width="1"/>
</svg>
