<svg version="1.2" xmlns="http://www.w3.org/2000/svg" viewBox="0 0 25 22" width="25" height="22">
	<g>
		<path d="m24.5 10.1l-11.2-9.8q-0.2-0.1-0.4-0.2-0.3-0.1-0.5-0.1-0.3 0-0.5 0.1-0.3 0.1-0.5 0.2l-11.1 9.8c-0.5 0.5-0.4 0.9 0.3 0.9h3.5v10q0 0.2 0 0.4 0.1 0.2 0.3 0.3 0.1 0.1 0.3 0.2 0.2 0.1 0.4 0.1h4.2v-6.6q0-0.2 0-0.4 0.1-0.2 0.3-0.3 0.1-0.2 0.3-0.2 0.2-0.1 0.4-0.1h4.2q0.2 0 0.4 0.1 0.2 0 0.3 0.2 0.2 0.1 0.2 0.3 0.1 0.2 0.1 0.4v6.6h4.2q0.2 0 0.4-0.1 0.2-0.1 0.3-0.2 0.2-0.1 0.2-0.3 0.1-0.2 0.1-0.4v-10h3.4c0.7 0 0.9-0.4 0.4-0.9z"/>
	</g>
</svg>