<svg version="1.2" xmlns="http://www.w3.org/2000/svg" viewBox="0 0 52 48" width="52" height="48">
	<title>presence-svg</title>
	<style>
		.s0 { fill: #ffffff;stroke: #ffffff;stroke-width: .4 } 
	</style>
	<g id="Group_62250">
		<g id="Group_62250-2">
			<path id="Path_110325" fill-rule="evenodd" class="s0" d="m29.6 38.6c1.4 2.4 2.8 4.5 4.2 6.7q0.1 0 0.2 0.1 0.1 0.1 0.2 0.2 0.1 0 0.3 0 0.1 0.1 0.2 0.1c0.9 0 1.8 0 2.7 0 0.7 0 1.4 0.1 1.4 1-0.1 0.9-0.7 1-1.4 1-0.2 0-23.5 0-23.8 0-0.6 0-1.2-0.2-1.2-1 0-0.8 0.5-1 1.2-1 1 0 1.9 0 2.9 0q0.1 0 0.2 0 0.1-0.1 0.2-0.1 0.1-0.1 0.2-0.1 0.1-0.1 0.2-0.2c1.4-2.1 2.8-4.3 4.3-6.7-5.1 0-11.4 0-16.5 0-3.1 0-5-1.8-5-4.9q0-12.6 0-25.3-0.1-1 0.3-1.9 0.3-1 1-1.7 0.7-0.7 1.7-1 0.9-0.4 1.9-0.3 11.8 0 23.7 0c0.3 0 0.6 0 0.8 0.1 0.3 0.2 0.7 0.6 0.7 0.9q0 0.1-0.1 0.3-0.1 0.1-0.1 0.2-0.1 0.1-0.2 0.2-0.2 0.1-0.3 0.2-0.1 0.1-0.3 0.1-0.1 0-0.3 0-0.1 0-0.3 0-0.1 0-0.3 0-11.5 0-23 0c-2.4 0-3.2 0.9-3.2 3.2q0 12.4 0 24.8c0 2.2 0.9 3.1 3.1 3.1q20.4 0 40.7 0c2.2 0 3.2-0.9 3.2-3.1q0-7 0-14c0-0.3-0.1-0.7 0-0.9 0.2-0.4 0.6-0.9 0.9-0.8 0.4 0 0.7 0.5 1 0.8 0.1 0.2 0.1 0.5 0.1 0.7q0 7.2 0 14.3c0 3.2-1.9 5-5 5q-7.7 0.1-15.4 0zm2.1 7.1c-1.5-2.4-2.8-4.6-4.2-6.7q-0.1-0.1-0.2-0.1-0.1-0.1-0.1-0.1-0.1-0.1-0.2-0.1-0.1 0-0.2 0c-1.7-0.2-3.2-0.1-4 1.8q-0.2 0.4-0.4 0.8-0.2 0.4-0.4 0.7-0.2 0.4-0.5 0.7-0.2 0.4-0.5 0.7c-0.4 0.7-0.9 1.4-1.4 2.3z"/>
			<path id="Path_110326" fill-rule="evenodd" class="s0" d="m22 20.7q-0.9-0.8-1.5-1.9-0.5-1-0.6-2.2 0-1.2 0.4-2.3 0.5-1.1 1.3-2 0.8-0.7 1.8-1.1 1-0.4 2.1-0.4 1 0 2 0.4 1.1 0.4 1.8 1.1 0.9 0.9 1.3 2 0.5 1.1 0.4 2.3 0 1.1-0.6 2.2-0.5 1.1-1.4 1.8 0.3 0.3 0.6 0.4 0.8 0.5 1.5 1.2 0.6 0.7 1.1 1.5 0.5 0.9 0.8 1.8 0.2 0.9 0.3 1.9c0 0.9 0 1.8 0 2.8q0 0.2 0 0.4-0.1 0.3-0.3 0.5-0.2 0.2-0.4 0.2-0.3 0.1-0.5 0.1-6.6 0-13.2 0c-0.7 0-1.2-0.3-1.2-1q-0.1-0.6-0.1-1.2 0.1-0.5 0.1-1.1 0-0.5 0.1-1.1 0-0.5 0.1-1.1 0.1-0.7 0.4-1.4 0.3-0.7 0.7-1.3 0.4-0.6 1-1.1 0.5-0.5 1.1-0.9 0.4-0.3 0.9-0.5zm9.3 8.6c0.2-2.8-0.4-5.1-2.8-6.6q-0.8-0.4-1.6-0.7-0.8-0.2-1.6-0.2-0.9 0.1-1.7 0.3-0.7 0.3-1.4 0.8c-2.3 1.6-2.8 3.8-2.5 6.4zm-2.3-13c0-1.4-0.8-2.7-2.1-3.3-1.4-0.5-2.9-0.2-3.9 0.8-1 1-1.3 2.6-0.7 3.9 0.5 1.3 1.8 2.1 3.2 2.1q0.7 0 1.4-0.2 0.6-0.3 1.1-0.8 0.5-0.5 0.8-1.2 0.3-0.6 0.2-1.3z"/>
			<path id="Path_110327" fill-rule="evenodd" class="s0" d="m36.3 16c-0.5 0-0.8 0-1.1 0q-0.6-0.1-1.2-0.3-0.5-0.2-0.9-0.6-0.5-0.5-0.7-1-0.2-0.5-0.2-1.1-0.1-5 0-9.9 0-0.6 0.2-1.1 0.3-0.6 0.7-1 0.4-0.4 1-0.7 0.6-0.2 1.2-0.2c1.6 0 3.2 0 4.8 0q3.6 0 7.3 0c2.5 0 3.7 1.3 3.7 3.7q0 4.3 0 8.7 0 0.7-0.2 1.3-0.2 0.7-0.7 1.2-0.5 0.5-1.2 0.8-0.7 0.2-1.4 0.2c-1.7 0-3.5-0.1-5.2 0q-0.2 0-0.4 0-0.2 0.1-0.4 0.2-0.2 0-0.3 0.1-0.2 0.1-0.3 0.3c-1 0.8-1.8 1.8-2.8 2.7q-0.1 0.1-0.3 0.2-0.1 0-0.3 0.1-0.2 0.1-0.3 0.1-0.2 0-0.4 0c-0.3-0.2-0.5-0.8-0.6-1.2q0-0.3 0-0.6 0-0.4 0-0.7 0-0.3 0-0.6 0-0.3 0-0.6zm2.2 0.4c0.4-0.6 0.9-1 1.2-1.4q0.2-0.3 0.5-0.5 0.3-0.2 0.6-0.4 0.3-0.1 0.7-0.2 0.3 0 0.7 0c1.7 0.1 3.5 0.1 5.3 0.1 1.2 0 1.6-0.4 1.6-1.6q0-4.3 0-8.7c0-1.2-0.4-1.6-1.6-1.6q-5.9 0-11.8 0c-1.2 0-1.6 0.4-1.6 1.6q0 4.3 0 8.7c0 1.2 0.4 1.5 1.5 1.6 2.4 0 2.4 0 2.9 2.4z"/>
		</g>
	</g>
</svg>