<svg version="1.2" xmlns="http://www.w3.org/2000/svg" viewBox="0 0 11 19" width="11" height="19">
	<title>Icon ionic-ios-arrow-forward-svg</title>
	<style>
		.s0 { fill: #ff5200 } 
	</style>
	<path id="Icon_ionic-ios-arrow-forward" class="s0" d="m3.4 9.5l7.2 7.2q0.2 0.2 0.3 0.4 0.1 0.3 0.1 0.6 0 0.2-0.1 0.5-0.1 0.2-0.3 0.4-0.2 0.2-0.4 0.3-0.3 0.1-0.6 0.1-0.2 0-0.5-0.1-0.2-0.1-0.4-0.3l-8.1-8.1q-0.2-0.2-0.3-0.4-0.1-0.3-0.1-0.5 0-0.3 0.1-0.5 0.1-0.3 0.2-0.5l8.2-8.1c0.2-0.3 0.6-0.4 0.9-0.4 0.4 0 0.7 0.1 1 0.4 0.2 0.2 0.4 0.6 0.4 0.9 0 0.4-0.2 0.7-0.4 1z"/>
</svg>