<svg xmlns="http://www.w3.org/2000/svg" width="57.671" height="60.881" viewBox="0 0 57.671 60.881">
  <style>
		.s0 { fill: #ffffff;stroke: #ffffff;stroke-width: .4 } 
	</style>
  <g id="Group_62253" data-name="Group 62253" transform="translate(-863.329 -3171.899)">
    <g id="Group_62248" data-name="Group 62248" transform="translate(15 352)">
      <g id="Group_62247" data-name="Group 62247" transform="translate(204.403 1834.982)">
        <path class="s0" id="Path_110294" data-name="Path 110294" d="M712.857,991.967a5.921,5.921,0,0,1,2.526-6.078,4.559,4.559,0,0,1,6.611,1.062c.951,1.258,1.807,2.589,2.818,4.051l2.171-3.184c1.751-2.568,3.7-3.413,5.985-2.6a5.968,5.968,0,0,1,3.818,6.306c-.008.077.007.156.023.431.683,0,1.381-.015,2.077,0,2.6.067,4.061,1.579,4.16,4.189.086,2.265-.349,4.179-2.771,5.1-.259.1-.42.774-.422,1.184-.028,5.153-.016,10.307-.019,15.46,0,3.446-1.465,4.9-4.919,4.9q-10.227,0-20.455,0-4.694,0-4.694-4.657c0-5.193-.014-10.386.012-15.579,0-.781-.1-1.26-.959-1.6a3.419,3.419,0,0,1-2.187-3.139,18.5,18.5,0,0,1-.02-2.02,3.78,3.78,0,0,1,3.75-3.823C711.145,991.927,711.933,991.967,712.857,991.967Zm-.707,9.4v1.068q0,7.854,0,15.709c0,1.722.546,2.266,2.275,2.267q10.354.007,20.707,0c1.805,0,2.31-.511,2.312-2.344q.008-7.795,0-15.59c0-.342-.05-.683-.083-1.107h-7.438c-1.666,0-3.339.078-4.994-.054a1.763,1.763,0,0,1-1.251-1.081c-.168-.757.443-1.2,1.234-1.243.317-.017.635-.007.952-.007,4.284,0,8.569.029,12.852-.036a2.273,2.273,0,0,0,1.682-.784,2.393,2.393,0,0,0-2.141-3.817q-13.448,0-26.895,0c-.317,0-.636,0-.951.026A1.4,1.4,0,0,0,709,995.839c-.023.475-.029.953-.009,1.428.053,1.225.531,1.689,1.778,1.712,1.031.019,2.063-.014,3.094.018a1.182,1.182,0,1,1,.005,2.363C713.359,1001.38,712.845,1001.363,712.15,1001.363Zm14.91-9.416c2.381,0,4.475.016,6.569-.022a.962.962,0,0,0,.68-.486c.519-1.091-.245-2.85-1.538-3.659a2.193,2.193,0,0,0-3.235.592C728.721,989.433,728.006,990.57,727.059,991.947Zm-4.519,0c-.838-1.232-1.5-2.249-2.208-3.239-.983-1.381-2-1.707-3.234-1.083a3.4,3.4,0,0,0-1.846,3.647c.086.269.437.64.673.645C718.044,991.964,720.164,991.944,722.54,991.944Z" transform="translate(-51.05)"/>
        <path class="s0" id="Path_110295" data-name="Path 110295" d="M692.349,1163.275c3.358-1.658,6.555-3.325,9.836-4.806a6.211,6.211,0,0,1,3.414-.548,4.15,4.15,0,0,1,2.291,6.8,7.46,7.46,0,0,1-1.421,1.249c-4.318,3.09-8.679,6.121-12.963,9.257a10.024,10.024,0,0,1-9.617,1.67c-3.8-1.233-7.674-2.232-11.536-3.257a24.8,24.8,0,0,0-3.335-.426c-.527,2.543-2.212,3.2-4.449,3.074-1.146-.065-2.3.018-3.448-.021a3.152,3.152,0,0,1-3.321-3.39q-.031-5.352,0-10.7a3.163,3.163,0,0,1,3.4-3.425,29.958,29.958,0,0,1,4.394.048,4.369,4.369,0,0,1,2.561,1.191,1.7,1.7,0,0,0,2.057.55,3.878,3.878,0,0,0,1.061-.523c3.711-2.521,7.748-2.789,11.957-1.7,1.991.515,3.95,1.154,5.926,1.729A4.742,4.742,0,0,1,692.349,1163.275Zm-23.323,7.517a29.29,29.29,0,0,1,3.687.5c4.17,1.1,8.33,2.245,12.462,3.477a6.769,6.769,0,0,0,6.2-.989q7.031-4.984,14.049-9.986a1.945,1.945,0,1,0-1.951-3.353c-.218.092-.429.2-.641.31-3.3,1.634-6.605,3.254-9.889,4.919a3.522,3.522,0,0,0-1.214,1.049,4.393,4.393,0,0,1-4.992,1.834c-2.063-.558-4.111-1.171-6.166-1.754-.824-.234-1.581-.587-1.3-1.618s1.124-.935,1.941-.7c1.977.572,3.95,1.158,5.931,1.716a2.05,2.05,0,1,0,1.2-3.889c-1.814-.562-3.628-1.135-5.466-1.61-3.1-.8-6.169-.964-9.134.619-1.475.787-3.015,1.453-4.721,2.267Zm-2.457-3.217c0-1.743-.009-3.485,0-5.228.006-.837-.355-1.236-1.218-1.219-1.346.027-2.693.019-4.039,0-.8-.009-1.146.341-1.142,1.146q.023,5.228,0,10.455c0,.81.347,1.164,1.133,1.161,1.307-.005,2.614-.027,3.92.009.957.026,1.373-.371,1.354-1.338C666.547,1170.9,666.57,1169.238,666.569,1167.574Z" transform="translate(-13.858 -131.666)"/>
        <path class="s0" id="Path_110296" data-name="Path 110296" d="M670.334,1090.643a18.625,18.625,0,0,1-3.07-.052c-.47-.079-.847-.708-1.265-1.087.4-.407.78-1.141,1.2-1.165a56.546,56.546,0,0,1,6.388,0c.423.024.806.759,1.207,1.166-.421.38-.8,1.012-1.27,1.087A20.441,20.441,0,0,1,670.334,1090.643Z" transform="translate(-20.117 -78.736)"/>
        <path class="s0" id="Path_110297" data-name="Path 110297" d="M867.58,1090.689c-.986,0-1.973,0-2.959,0-.789,0-1.332-.373-1.332-1.178s.576-1.184,1.34-1.191c2.051-.018,4.1-.028,6.154.008a1.13,1.13,0,0,1,1.26,1.25c-.034.778-.545,1.1-1.269,1.1C869.71,1090.7,868.645,1090.687,867.58,1090.689Z" transform="translate(-170.449 -78.779)"/>
        <path class="s0" id="Path_110298" data-name="Path 110298" d="M678.111,1059.213c.008.991-.734,1.662-1.444,1.349-2.022-.892-4.018-1.855-5.954-2.92-.309-.17-.461-1.093-.293-1.508a1.455,1.455,0,0,1,1.359-.446c1.924.823,3.8,1.761,5.662,2.72C677.776,1058.581,677.967,1059.033,678.111,1059.213Z" transform="translate(-23.434 -53.895)"/>
        <path class="s0" id="Path_110299" data-name="Path 110299" d="M870.309,1054.415c.382.323.913.556,1.007.907.109.4-.023,1.182-.3,1.333q-2.969,1.6-6.066,2.959c-.283.124-1-.264-1.215-.6a1.294,1.294,0,0,1,.148-1.243C865.947,1056.614,868.069,1055.564,870.309,1054.415Z" transform="translate(-170.716 -52.955)"/>
        <path class="s0" id="Path_110300" data-name="Path 110300" d="M871.118,1113.87c-.052,1.088-.831,1.644-1.634,1.283-1.91-.857-3.792-1.782-5.656-2.737a1.069,1.069,0,0,1-.5-1.605,1.124,1.124,0,0,1,1.627-.462c1.776.866,3.568,1.7,5.318,2.62C870.673,1113.178,870.928,1113.66,871.118,1113.87Z" transform="translate(-170.336 -95.445)"/>
        <path class="s0" id="Path_110301" data-name="Path 110301" d="M676.8,1109.4c.39.333.925.57,1.017.923.105.4-.04,1.175-.324,1.327-1.98,1.064-4.009,2.043-6.066,2.951a1.281,1.281,0,0,1-1.157-.5c-.178-.367-.122-1.221.118-1.357C672.446,1111.582,674.569,1110.539,676.8,1109.4Z" transform="translate(-23.293 -94.849)"/>
        <path class="s0" id="Path_110307" data-name="Path 110307" d="M767.328,1070.518a4.759,4.759,0,0,1-1.472,3.51c-1.5,1.466-3.025,2.908-4.516,4.385a1.378,1.378,0,0,1-2.243.017c-1.544-1.535-3.157-3-4.682-4.554a4.735,4.735,0,0,1-.9-5.391c.77-1.68,2.333-2.872,4.048-2.45a11.5,11.5,0,0,0,5.231.015C765.271,1065.562,767.319,1067.819,767.328,1070.518Zm-6.87,5.9c1.35-1.481,2.588-2.821,3.8-4.181a2.5,2.5,0,0,0,.063-3.357c-.728-.778-1.744-.755-2.852.175a1.729,1.729,0,0,1-2.536.006c-1.132-.941-2.106-.964-2.852-.185a2.355,2.355,0,0,0-.033,3.249C757.359,1073.5,758.764,1074.781,760.458,1076.42Z" transform="translate(-86.449 -61.745)"/>
        <path class="s0" id="Path_110308" data-name="Path 110308" d="M756.113,1046.871c-.3-.461-.847-.935-.824-1.38.021-.4.719-1.13,1.017-1.083a1.7,1.7,0,0,1,1.187,1.077c.066.4-.526.916-.829,1.381Z" transform="translate(-88.155 -45.329)"/>
      </g>
    </g>
  </g>
</svg>
