<svg xmlns="http://www.w3.org/2000/svg" width="58.181" height="58.228" viewBox="0 0 58.181 58.228">
  <style>
		.s0 { fill: #ffffff;stroke: #ffffff;stroke-width: .4 } 
	</style>
  <g id="Group_62464" data-name="Group 62464" transform="translate(-1107.999 -2819.976)">
    <g id="Group_62249" data-name="Group 62249" transform="translate(1110.149 2857.156)">
      <path class="s0" id="Path_110309" data-name="Path 110309" d="M631.009,682.339c1.558,1.82,1.7,3.457.479,4.737-1.248,1.31-2.949,1.215-4.773-.3-.965.619-1.96,1.228-2.922,1.883a2.923,2.923,0,0,0-1.291,2.6q.018,2.488,0,4.976c-.013,2.168-1.133,3.321-3.266,3.329q-5.036.02-10.073,0a2.926,2.926,0,0,1-3.171-3.177c-.017-1.5-.056-3,.01-4.49a3.5,3.5,0,0,0-2.091-3.488c-7.784-4.319-11.659-10.99-11.482-19.869a21.364,21.364,0,1,1,38.578,13.806Zm-33.28-8.917a24.768,24.768,0,0,0,2.553-1.705,1.864,1.864,0,0,0,.556-1.374,1.611,1.611,0,0,0-.807-1.093,27.67,27.67,0,0,0-2.786-1.065,1.924,1.924,0,0,1-.038-.435c.169-.913.351-1.824.525-2.737.34-1.776.339-1.775,2.073-1.682a10.814,10.814,0,0,1,1.331.064c.741.133,1.058-.271,1.409-.831a1.172,1.172,0,0,0-.165-1.514c-.565-.774-1.077-1.589-1.648-2.441l3.72-3.354a28.783,28.783,0,0,0,2.508,1.942,1.686,1.686,0,0,0,1.376.07,1.661,1.661,0,0,0,.832-1.077,28.961,28.961,0,0,0,.2-3.11l4.979-.525a28.872,28.872,0,0,1,.807,2.909,1.084,1.084,0,0,0,1.288.962,2.036,2.036,0,0,0,1.277-.5c.7-.708,1.281-1.532,1.919-2.321l4.367,2.457c-.306.82-.58,1.571-.867,2.317-.256.664-.58,1.212.069,1.967.7.816,1.338.486,2.054.3.775-.205,1.545-.43,2.409-.672l2.117,4.55c-.878.569-1.662,1.141-2.507,1.6-.655.359-.7.842-.676,1.5.029.719.4.955,1,1.147.913.3,1.8.665,2.775,1.032-.159.862-.287,1.653-.451,2.435-.509,2.421-.519,2.485-2.966,2.308-1.254-.091-2,.259-2.183,1.314l4.9,4.932c.2-.3.455-.645.676-1.016A19.479,19.479,0,1,0,599,682.088a25.512,25.512,0,0,0,6.035,4.811,7.151,7.151,0,0,0,4.206,1.017c3.357-.038,6.728-.2,10.066.049,2.6.2,4.037-1.523,6.053-2.677-1.6-1.58-3.037-3.054-4.546-4.451a1.651,1.651,0,0,0-1.3-.329c-.628.145-1.288.381-1.236,1.339a28.489,28.489,0,0,1-.139,3.023l-4.97.516a26.711,26.711,0,0,1-.774-2.77c-.138-.807-.617-.979-1.293-1.162-.7-.19-1.032.113-1.4.6-.574.77-1.2,1.5-1.829,2.275l-4.373-2.463A27.84,27.84,0,0,0,604.547,679a1.629,1.629,0,0,0-.3-1.326,1.838,1.838,0,0,0-1.379-.5,26.911,26.911,0,0,0-3.04.771Zm1.644-6.557c1.583.745,3.283.8,3.623,3.33.356,2.647-1.623,2.85-2.684,3.924.179,1.325.811,1.674,1.944,1.173a4.679,4.679,0,0,1,1.4-.386,1.37,1.37,0,0,1,.946.254c2.557,2.233,2.556,2.266,1.467,5.437a2.567,2.567,0,0,0-.057.428l1.371.779c1.207-1.176,1.735-2.878,4.279-2.357s2.318,2.334,3,3.865l1.755-.3c0-1.019-.271-2.07.08-2.836.32-.7,1.315-1.087,2.012-1.613a2.365,2.365,0,0,0-2.975-1.112,8.488,8.488,0,0,1-9.551-4.518,8.738,8.738,0,0,1,12.365-11.412,8.452,8.452,0,0,1,3.731,9.885,2.172,2.172,0,0,0,.97,2.964c.644-.62,1.174-1.489,1.921-1.757a9.127,9.127,0,0,1,2.9-.07l.279-1.475c-1.578-.76-3.3-.781-3.62-3.344-.323-2.625,1.625-2.846,2.682-3.909-.183-1.36-.84-1.665-1.956-1.171a3.946,3.946,0,0,1-1.281.347,1.569,1.569,0,0,1-1.054-.234c-2.552-2.254-2.542-2.264-1.456-5.431a2.457,2.457,0,0,0,.056-.422l-1.359-.77c-1.221,1.085-1.633,2.883-4.174,2.368-2.517-.51-2.5-2.159-3.033-3.732-1.723-.1-1.724-.1-1.786,1.448-.019.485.006.975-.061,1.454a.958.958,0,0,1-.359.666,10.822,10.822,0,0,1-3.435,1.415c-.7.059-1.482-.984-2.232-1.525-.186-.134-.391-.244-.606-.375l-1.278,1.167c2.305,1.745,1.99,3.67.376,5.635-.025.031-.029.088-.059.1a3.62,3.62,0,0,1-1.16.587,26.443,26.443,0,0,1-2.682.028Zm21.18,2.145a6.793,6.793,0,1,0-6.839,6.752A6.8,6.8,0,0,0,620.553,669.01Zm-12.57,23.664H620.55V689.9h-12.7C607.892,690.834,607.935,691.712,607.983,692.674Zm12.511,2.117H607.937c0,.324,0,.564,0,.8-.017,1.912.083,2.019,1.945,2.02q4.062,0,8.125,0C620.651,697.615,620.695,697.567,620.494,694.791Zm-1.622-18.654c3.123,3.113,6.161,6.135,9.19,9.167.577.578,1.215,1.152,1.958.425s.191-1.378-.391-1.957q-4.3-4.278-8.585-8.569c-.187-.187-.409-.339-.629-.519Z" transform="translate(-586.847 -678.521)"/>
      <path class="s0" id="Path_110310" data-name="Path 110310" d="M763.091,670.154l-1.214-1.512,4.843-3.885,1.218,1.514Z" transform="translate(-715.158 -691.106)"/>
      <path class="s0" id="Path_110311" data-name="Path 110311" d="M573.848,666.346l1.2-1.524,4.855,3.872-1.192,1.533Z" transform="translate(-572.78 -691.155)"/>
      <path class="s0" id="Path_110312" data-name="Path 110312" d="M566.3,726.03H560.6v-1.837H566.3Z" transform="translate(-562.746 -736.111)"/>
      <path class="s0" id="Path_110313" data-name="Path 110313" d="M782.376,724.226v1.78h-5.724v-1.78Z" transform="translate(-726.346 -736.136)"/>
      <path class="s0" id="Path_110314" data-name="Path 110314" d="M572.137,770.1l-4.816,2.9-1.032-1.651,4.861-2.915Z" transform="translate(-567.057 -769.608)"/>
      <path class="s0" id="Path_110315" data-name="Path 110315" d="M774.933,773.113l-4.836-2.9.993-1.668,4.826,2.893Z" transform="translate(-721.382 -769.697)"/>
      <path class="s0" id="Path_110316" data-name="Path 110316" d="M613.88,635.067l1.117-1,3.775,3.785-1.169.923Z" transform="translate(-603.093 -667.868)"/>
      <path class="s0" id="Path_110317" data-name="Path 110317" d="M730.715,633.885l.988,1.093-3.781,3.736-.861-1.2Z" transform="translate(-688.796 -667.729)"/>
      <path class="s0" id="Path_110318" data-name="Path 110318" d="M676.632,620.145h1.8V624.9h-1.8Z" transform="translate(-650.609 -657.325)"/>
    </g>
  </g>
</svg>
