<svg id="Sun" xmlns="http://www.w3.org/2000/svg" width="20.927" height="20.931" viewBox="0 0 20.927 20.931">
  <path id="Path_88849" data-name="Path 88849" d="M324.183-27a.164.164,0,0,0,.032.018.654.654,0,0,1,.505.673q0,1.256,0,2.511c0,.247,0,.494,0,.741a.653.653,0,0,1-.575.634.648.648,0,0,1-.7-.455.848.848,0,0,1-.031-.237q0-1.592,0-3.185a.654.654,0,0,1,.515-.685.091.091,0,0,0,.023-.016Z" transform="translate(-313.603 27)" fill="#f46150"/>
  <path id="Path_88850" data-name="Path 88850" d="M249,47.955c.012-.032.025-.064.037-.1a.641.641,0,0,1,.6-.439q1.655,0,3.309,0a.651.651,0,0,1,0,1.3q-1.65.006-3.3,0a.647.647,0,0,1-.613-.457c-.009-.027-.02-.052-.03-.079Z" transform="translate(-249 -37.606)" fill="#f46150"/>
  <path id="Path_88851" data-name="Path 88851" d="M295.649,23.583a3.928,3.928,0,1,1,3.919,3.937A3.93,3.93,0,0,1,295.649,23.583Zm3.93-2.615a2.623,2.623,0,1,0,2.621,2.625A2.623,2.623,0,0,0,299.579,20.968Z" transform="translate(-289.112 -13.126)" fill="#f46150"/>
  <path id="Path_88852" data-name="Path 88852" d="M323.407,96.338c0-.542,0-1.083,0-1.625a.652.652,0,0,1,1.3-.006q0,1.644,0,3.289a.652.652,0,0,1-1.3,0C323.4,97.441,323.407,96.89,323.407,96.338Z" transform="translate(-313.596 -77.709)" fill="#f46150"/>
  <path id="Path_88853" data-name="Path 88853" d="M372.368,47.42c.545,0,1.09,0,1.634,0a.648.648,0,0,1,.627.5.639.639,0,0,1-.344.731.726.726,0,0,1-.295.07q-1.634.007-3.269,0a.652.652,0,1,1,0-1.3C371.272,47.418,371.82,47.42,372.368,47.42Z" transform="translate(-353.72 -37.608)" fill="#f46150"/>
  <path id="Path_88854" data-name="Path 88854" d="M360.023-4.548a.626.626,0,0,1-.188.459q-1.158,1.161-2.32,2.319a.642.642,0,0,1-.924-.007.645.645,0,0,1,.009-.917q1.156-1.163,2.32-2.319a.62.62,0,0,1,.711-.133A.636.636,0,0,1,360.023-4.548Z" transform="translate(-341.668 7.773)" fill="#f46150"/>
  <path id="Path_88855" data-name="Path 88855" d="M360.033,83.443a.6.6,0,0,1-.391.536.616.616,0,0,1-.712-.129c-.309-.3-.609-.606-.913-.91q-.7-.7-1.394-1.395a.649.649,0,0,1,.261-1.1.621.621,0,0,1,.639.161c.216.21.427.425.641.638q.824.823,1.648,1.645A.712.712,0,0,1,360.033,83.443Z" transform="translate(-341.679 -65.677)" fill="#f46150"/>
  <path id="Path_88856" data-name="Path 88856" d="M271.493-5.183a.64.64,0,0,1,.446.213q.594.6,1.19,1.191c.365.365.733.727,1.094,1.1a.649.649,0,0,1-.275,1.093.616.616,0,0,1-.616-.147c-.144-.132-.279-.274-.417-.413q-.952-.952-1.9-1.9a.65.65,0,0,1,.017-.971A.67.67,0,0,1,271.493-5.183Z" transform="translate(-268.231 7.756)" fill="#f46150"/>
  <path id="Path_88857" data-name="Path 88857" d="M271.377,84.025a.651.651,0,0,1-.433-1.083c.135-.15.283-.288.426-.431q.945-.945,1.89-1.89a.645.645,0,0,1,.95-.015.652.652,0,0,1,.019.883q-.022.025-.046.049L271.9,83.823A.678.678,0,0,1,271.377,84.025Z" transform="translate(-268.204 -65.668)" fill="#f46150"/>
  <path id="Path_88858" data-name="Path 88858" d="M309.653,30.716a2.938,2.938,0,1,1-2.94,2.936A2.937,2.937,0,0,1,309.653,30.716Z" transform="translate(-299.187 -23.189)" fill="none"/>
</svg>
